<svg width="562" height="436" viewBox="0 0 562 436" fill="none" xmlns="http://www.w3.org/2000/svg">
<path d="M319.629 213.164C332.26 213.164 342.5 202.924 342.5 190.293C342.5 177.662 332.26 167.422 319.629 167.422C306.997 167.422 296.758 177.662 296.758 190.293C296.758 202.924 306.997 213.164 319.629 213.164Z" fill="#E6E6E6"/>
<path d="M375.683 219.685L351.783 195.784C353.615 192.935 354.856 189.747 355.434 186.408C356.011 183.07 355.912 179.65 355.144 176.351C354.375 173.051 352.952 169.94 350.959 167.201C348.966 164.461 346.443 162.15 343.541 160.403C338.075 157.138 331.582 156.045 325.348 157.34C319.114 158.634 313.594 162.223 309.88 167.395C306.464 172.186 304.823 178.018 305.239 183.887C305.656 189.757 308.105 195.298 312.165 199.558C316.224 203.818 321.641 206.531 327.484 207.229C333.327 207.928 339.23 206.57 344.18 203.387L368.081 227.288C369.089 228.295 370.456 228.861 371.882 228.86C373.307 228.86 374.674 228.294 375.682 227.286C376.689 226.278 377.256 224.911 377.256 223.486C377.256 222.06 376.691 220.693 375.683 219.685ZM343.288 194.892C340.326 197.854 336.43 199.697 332.262 200.107C328.094 200.518 323.912 199.471 320.43 197.144C316.948 194.817 314.38 191.355 313.164 187.347C311.948 183.339 312.16 179.034 313.762 175.164C315.365 171.295 318.26 168.101 321.953 166.127C325.647 164.152 329.911 163.52 334.019 164.337C338.126 165.154 341.824 167.37 344.481 170.608C347.138 173.845 348.59 177.904 348.59 182.092C348.593 184.47 348.126 186.824 347.216 189.021C346.306 191.218 344.971 193.213 343.288 194.892Z" fill="#273144"/>
<path d="M548.934 254.938C610.057 322.534 432.872 419.948 289.702 419.948C146.533 419.948 47.4821 344.469 30.4712 254.938C-10.7744 37.8568 381.894 -100.119 289.702 89.9286C155.323 366.945 500.798 201.706 548.934 254.938Z" fill="#E6E6E6"/>
<path d="M521.51 270.934C582.633 338.53 405.448 435.944 262.279 435.944C119.109 435.944 20.0583 360.465 3.04738 270.934C-38.1982 53.8529 354.47 -84.123 262.279 105.925C127.899 382.941 473.374 217.702 521.51 270.934Z" fill="#273144"/>
<path d="M85.4713 112.458C42.5818 110.569 9.32714 101.318 9.76402 91.3953C10.0259 85.4466 22.1641 80.663 43.066 78.2717C43.1408 78.2627 43.2167 78.2685 43.2892 78.2889C43.3617 78.3092 43.4295 78.3438 43.4887 78.3904C43.5478 78.4371 43.5972 78.495 43.6338 78.5609C43.6705 78.6267 43.6938 78.6991 43.7024 78.774C43.7109 78.8489 43.7046 78.9247 43.6837 78.9971C43.6629 79.0695 43.6279 79.1371 43.5808 79.1959C43.5337 79.2547 43.4755 79.3037 43.4094 79.3399C43.3433 79.3761 43.2708 79.3989 43.1958 79.407C23.5063 81.6598 11.1334 86.2727 10.9056 91.4456C10.5105 100.418 44.6804 109.518 85.5216 111.316C126.363 113.114 161.2 107.053 161.595 98.0805C161.824 92.8859 149.827 87.1874 130.287 83.2092C130.213 83.1945 130.143 83.1653 130.08 83.1234C130.018 83.0814 129.965 83.0276 129.923 82.965C129.881 82.9024 129.853 82.8321 129.838 82.7584C129.824 82.6846 129.824 82.6087 129.839 82.535C129.854 82.4613 129.884 82.3914 129.926 82.3291C129.968 82.2668 130.022 82.2134 130.084 82.172C130.147 82.1306 130.217 82.102 130.291 82.0879C130.365 82.0737 130.441 82.0742 130.515 82.0894C151.255 86.312 163 92.1589 162.737 98.1308C162.3 108.053 128.361 114.346 85.4713 112.458Z" fill="#EB5252"/>
<path d="M47.3789 114.117C50.9669 120.933 56.2819 126.687 62.7921 130.804C69.3023 134.921 76.7795 137.256 84.4755 137.575C92.1715 137.894 99.8165 136.187 106.645 132.624C113.474 129.061 119.248 123.767 123.388 117.272C98.0133 117.614 72.6385 116.561 47.3789 114.117Z" fill="#EB5252"/>
<path d="M128.132 105.255C130.291 98.7784 130.914 91.8879 129.949 85.1289C128.985 78.37 126.461 71.9282 122.577 66.3135C118.693 60.6987 113.555 56.0651 107.57 52.7793C101.585 49.4936 94.9181 47.6458 88.0958 47.3824C81.2735 47.1189 74.4836 48.447 68.2633 51.2614C62.0431 54.0759 56.5632 58.2995 52.2576 63.598C47.9519 68.8965 44.9385 75.1244 43.456 81.7888C41.9734 88.4533 42.0624 95.3713 43.7158 101.995C71.5951 106.728 99.9707 107.824 128.132 105.255Z" fill="#EB5252"/>
<path d="M96.4624 75.7608C99.3024 75.7608 101.605 73.4586 101.605 70.6187C101.605 67.7788 99.3024 65.4766 96.4624 65.4766C93.6225 65.4766 91.3203 67.7788 91.3203 70.6187C91.3203 73.4586 93.6225 75.7608 96.4624 75.7608Z" fill="white"/>
<path d="M69.9979 95.7537C74.7311 95.7537 78.5681 91.9167 78.5681 87.1835C78.5681 82.4503 74.7311 78.6133 69.9979 78.6133C65.2647 78.6133 61.4277 82.4503 61.4277 87.1835C61.4277 91.9167 65.2647 95.7537 69.9979 95.7537Z" fill="white"/>
<path d="M199.344 87.3563C202.5 87.3563 205.058 84.7984 205.058 81.643C205.058 78.4876 202.5 75.9297 199.344 75.9297C196.189 75.9297 193.631 78.4876 193.631 81.643C193.631 84.7984 196.189 87.3563 199.344 87.3563Z" fill="#EB5252"/>
<path d="M70.2211 262.188C72.1144 262.188 73.6492 260.653 73.6492 258.76C73.6492 256.867 72.1144 255.332 70.2211 255.332C68.3278 255.332 66.793 256.867 66.793 258.76C66.793 260.653 68.3278 262.188 70.2211 262.188Z" fill="#E6E6E6"/>
<path d="M310.186 379.886C312.079 379.886 313.614 378.351 313.614 376.457C313.614 374.564 312.079 373.029 310.186 373.029C308.293 373.029 306.758 374.564 306.758 376.457C306.758 378.351 308.293 379.886 310.186 379.886Z" fill="#E6E6E6"/>
<path d="M86.7883 195.914C87.735 195.914 88.5024 195.147 88.5024 194.2C88.5024 193.254 87.735 192.486 86.7883 192.486C85.8416 192.486 85.0742 193.254 85.0742 194.2C85.0742 195.147 85.8416 195.914 86.7883 195.914Z" fill="#E6E6E6"/>
<path d="M228.486 323.895C229.432 323.895 230.2 323.128 230.2 322.181C230.2 321.234 229.432 320.467 228.486 320.467C227.539 320.467 226.771 321.234 226.771 322.181C226.771 323.128 227.539 323.895 228.486 323.895Z" fill="#E6E6E6"/>
<path d="M486.163 307.329C487.11 307.329 487.877 306.561 487.877 305.614C487.877 304.668 487.11 303.9 486.163 303.9C485.217 303.9 484.449 304.668 484.449 305.614C484.449 306.561 485.217 307.329 486.163 307.329Z" fill="#E6E6E6"/>
<path d="M405.603 358.178C406.549 358.178 407.317 357.411 407.317 356.464C407.317 355.517 406.549 354.75 405.603 354.75C404.656 354.75 403.889 355.517 403.889 356.464C403.889 357.411 404.656 358.178 405.603 358.178Z" fill="#E6E6E6"/>
<path d="M321.613 296.471C322.559 296.471 323.327 295.704 323.327 294.757C323.327 293.81 322.559 293.043 321.613 293.043C320.666 293.043 319.898 293.81 319.898 294.757C319.898 295.704 320.666 296.471 321.613 296.471Z" fill="#E6E6E6"/>
<path d="M213.058 127.352C214.004 127.352 214.772 126.585 214.772 125.638C214.772 124.691 214.004 123.924 213.058 123.924C212.111 123.924 211.344 124.691 211.344 125.638C211.344 126.585 212.111 127.352 213.058 127.352Z" fill="#E6E6E6"/>
<path d="M226.771 42.7934C227.717 42.7934 228.485 42.026 228.485 41.0793C228.485 40.1327 227.717 39.3652 226.771 39.3652C225.824 39.3652 225.057 40.1327 225.057 41.0793C225.057 42.026 225.824 42.7934 226.771 42.7934Z" fill="#E6E6E6"/>
<path d="M218.771 398.745C219.717 398.745 220.485 397.977 220.485 397.03C220.485 396.084 219.717 395.316 218.771 395.316C217.824 395.316 217.057 396.084 217.057 397.03C217.057 397.977 217.824 398.745 218.771 398.745Z" fill="#E6E6E6"/>
<path d="M134.21 362.748C135.157 362.748 135.924 361.981 135.924 361.034C135.924 360.088 135.157 359.32 134.21 359.32C133.264 359.32 132.496 360.088 132.496 361.034C132.496 361.981 133.264 362.748 134.21 362.748Z" fill="#E6E6E6"/>
<path d="M402.173 301.041C403.12 301.041 403.887 300.274 403.887 299.327C403.887 298.381 403.12 297.613 402.173 297.613C401.226 297.613 400.459 298.381 400.459 299.327C400.459 300.274 401.226 301.041 402.173 301.041Z" fill="#E6E6E6"/>
<path d="M84.773 133.581C87.6129 133.581 89.9151 131.279 89.9151 128.439C89.9151 125.599 87.6129 123.297 84.773 123.297C81.9331 123.297 79.6309 125.599 79.6309 128.439C79.6309 131.279 81.9331 133.581 84.773 133.581Z" fill="white"/>
<path d="M201.059 207.342C201.059 222.7 177.314 258.487 170.375 268.617C170.166 268.923 169.885 269.174 169.557 269.347C169.229 269.52 168.864 269.611 168.493 269.611C168.122 269.611 167.756 269.52 167.428 269.347C167.1 269.174 166.819 268.923 166.61 268.617C159.671 258.487 135.926 222.7 135.926 207.342C135.926 203.065 136.768 198.831 138.405 194.879C140.041 190.928 142.44 187.338 145.464 184.314C148.488 181.29 152.079 178.891 156.03 177.254C159.981 175.618 164.216 174.775 168.493 174.775C172.769 174.775 177.004 175.618 180.955 177.254C184.907 178.891 188.497 181.29 191.521 184.314C194.545 187.338 196.944 190.928 198.58 194.879C200.217 198.831 201.059 203.065 201.059 207.342Z" fill="white"/>
<path d="M168.493 221.624C177.644 221.624 185.062 214.206 185.062 205.055C185.062 195.905 177.644 188.486 168.493 188.486C159.342 188.486 151.924 195.905 151.924 205.055C151.924 214.206 159.342 221.624 168.493 221.624Z" fill="#EB5252"/>
<path d="M168.208 287.33C178.779 287.33 187.349 285.667 187.349 283.616C187.349 281.565 178.779 279.902 168.208 279.902C157.638 279.902 149.068 281.565 149.068 283.616C149.068 285.667 157.638 287.33 168.208 287.33Z" fill="white"/>
<path d="M466.706 181.644C466.561 181.925 466.439 182.217 466.34 182.517L439.039 190.103L434.119 185.288L425.883 191.763L433.764 201.133C434.401 201.89 435.266 202.42 436.229 202.643C437.193 202.867 438.203 202.772 439.108 202.372L468.599 189.354C469.599 190.049 470.787 190.422 472.005 190.425C473.223 190.427 474.413 190.059 475.417 189.369C476.42 188.679 477.19 187.7 477.623 186.562C478.057 185.423 478.133 184.18 477.843 182.997C477.553 181.815 476.909 180.748 475.998 179.94C475.087 179.132 473.951 178.62 472.742 178.474C471.533 178.327 470.308 178.551 469.23 179.117C468.151 179.684 467.271 180.565 466.706 181.644H466.706Z" fill="#FFB8B8"/>
<path d="M438.077 190.545L427.83 198.52C427.538 198.747 427.201 198.909 426.842 198.994C426.482 199.079 426.108 199.085 425.746 199.012C425.384 198.94 425.041 198.79 424.742 198.573C424.443 198.357 424.194 198.078 424.012 197.756L417.644 186.485C416.491 184.987 415.979 183.093 416.221 181.218C416.463 179.342 417.438 177.64 418.933 176.483C420.429 175.326 422.322 174.81 424.197 175.047C426.073 175.283 427.778 176.255 428.939 177.747L438.273 186.656C438.541 186.911 438.75 187.221 438.886 187.564C439.023 187.908 439.084 188.276 439.066 188.645C439.047 189.014 438.949 189.375 438.778 189.703C438.608 190.031 438.369 190.318 438.077 190.545V190.545Z" fill="#EB5252"/>
<path d="M469.323 177.869L479.715 182.545C480.15 182.74 480.49 183.101 480.659 183.547C480.828 183.993 480.813 184.488 480.618 184.924L479.387 187.658C479.532 187.724 479.645 187.844 479.701 187.993C479.758 188.141 479.753 188.306 479.688 188.451L479.196 189.545C479.13 189.69 479.01 189.803 478.862 189.859C478.713 189.915 478.548 189.911 478.403 189.846L477.911 190.94C478.056 191.006 478.169 191.126 478.225 191.274C478.281 191.423 478.277 191.588 478.212 191.733L477.72 192.827C477.654 192.971 477.534 193.084 477.385 193.141C477.237 193.197 477.072 193.192 476.927 193.128L470.283 207.895C470.087 208.33 469.726 208.669 469.28 208.839C468.834 209.008 468.339 208.993 467.904 208.797L457.512 204.122C457.077 203.926 456.737 203.566 456.568 203.119C456.399 202.673 456.414 202.178 456.61 201.743L466.944 178.772C467.14 178.337 467.501 177.997 467.947 177.828C468.393 177.659 468.888 177.674 469.323 177.869Z" fill="#273144"/>
<path d="M459.399 202.668L467.736 206.422C468.153 206.609 468.628 206.623 469.056 206.461C469.484 206.3 469.831 205.975 470.021 205.559L473.871 196.994L475.208 194.026L478.693 186.277C478.879 185.86 478.893 185.387 478.731 184.96C478.569 184.533 478.245 184.187 477.829 183.998L475.208 182.817L469.487 180.244C469.069 180.057 468.595 180.044 468.167 180.207C467.74 180.37 467.395 180.696 467.208 181.113L463.837 188.604L459.999 197.132L458.536 200.389C458.349 200.806 458.335 201.28 458.497 201.707C458.659 202.134 458.983 202.48 459.399 202.668Z" fill="#F2F2F2"/>
<path d="M441.982 308.78L448.986 308.78L452.319 281.762L441.98 281.762L441.982 308.78Z" fill="#FFB8B8"/>
<path d="M440.195 306.493L453.99 306.492H453.99C455.145 306.492 456.288 306.72 457.355 307.161C458.421 307.603 459.39 308.251 460.207 309.067C461.023 309.883 461.67 310.852 462.112 311.919C462.554 312.985 462.781 314.129 462.781 315.283V315.569L440.196 315.57L440.195 306.493Z" fill="#273144"/>
<path d="M460.263 307.065L467.268 307.065L470.6 280.047L460.262 280.047L460.263 307.065Z" fill="#FFB8B8"/>
<path d="M458.479 304.78L472.273 304.779H472.274C473.428 304.779 474.571 305.007 475.638 305.448C476.704 305.89 477.673 306.538 478.49 307.354C479.306 308.17 479.954 309.139 480.395 310.206C480.837 311.273 481.065 312.416 481.065 313.57V313.856L458.479 313.857L458.479 304.78Z" fill="#273144"/>
<path d="M410.561 245.38C412.053 249.804 414.884 253.655 418.661 256.399C422.438 259.143 426.975 260.646 431.644 260.698L431.998 260.704C435.614 260.807 439.86 259.641 444.025 257.967C452.252 254.659 460.154 249.363 462.251 247.906L458.697 282.067L457.257 295.916C457.221 296.274 457.26 296.636 457.372 296.979C457.484 297.321 457.666 297.636 457.907 297.903C458.149 298.171 458.443 298.385 458.772 298.532C459.101 298.678 459.457 298.755 459.817 298.756H468.69C469.259 298.756 469.812 298.568 470.262 298.22C470.713 297.873 471.036 297.386 471.181 296.836L485.83 241.044C486.27 239.374 486.305 237.623 485.933 235.937C485.562 234.251 484.794 232.677 483.693 231.347C482.593 230.016 481.191 228.967 479.604 228.285C478.018 227.604 476.292 227.31 474.569 227.429L444.139 229.514L446.264 221.012L419.102 219.207L419.023 219.264C418.371 219.738 417.737 220.235 417.132 220.755C415.617 222.036 414.275 223.507 413.138 225.132C411.103 228.047 409.806 231.413 409.358 234.939C408.909 238.466 409.322 242.048 410.561 245.38Z" fill="#273144"/>
<path d="M410.561 245.383C412.053 249.807 414.884 253.658 418.661 256.402C422.438 259.146 426.975 260.649 431.644 260.701C436.108 258.442 440.416 255.886 444.539 253.051L444.025 257.97L439.545 301.061C439.509 301.419 439.548 301.781 439.66 302.124C439.772 302.466 439.955 302.781 440.196 303.048C440.437 303.316 440.731 303.53 441.06 303.677C441.389 303.823 441.745 303.9 442.105 303.901H450.978C451.547 303.901 452.1 303.713 452.551 303.365C453.001 303.018 453.324 302.531 453.469 301.981L458.697 282.069L468.118 246.189C468.558 244.519 468.593 242.768 468.222 241.082C467.85 239.396 467.082 237.822 465.982 236.492C464.881 235.161 463.479 234.112 461.893 233.43C460.306 232.749 458.58 232.455 456.857 232.574L426.427 234.659L428.553 226.157L413.138 225.135C411.103 228.05 409.806 231.415 409.358 234.942C408.909 238.468 409.322 242.051 410.561 245.383Z" fill="#273144"/>
<path d="M417.093 222.727L416.889 222.703L412.149 199.4C412.109 199.198 408.234 179.098 420.112 168.591L420.319 167.152C420.372 166.784 420.504 166.432 420.706 166.12C420.908 165.808 421.176 165.544 421.49 165.345C421.804 165.146 422.158 165.018 422.527 164.969C422.895 164.921 423.27 164.952 423.625 165.063L434.815 168.533C435.448 168.728 435.982 169.161 436.303 169.741C436.625 170.32 436.709 171.002 436.54 171.643L435.452 175.78C436.96 177.551 454.715 198.927 448.53 215.395L445.761 226.223L417.093 222.727Z" fill="#EB5252"/>
<path d="M463.557 204.541C463.289 204.709 463.035 204.898 462.797 205.107L435.431 197.76L433.642 191.113L423.258 192.502L425.281 204.577C425.445 205.553 425.92 206.449 426.637 207.131C427.353 207.813 428.271 208.245 429.253 208.361L461.267 212.143C461.775 213.249 462.609 214.175 463.656 214.796C464.704 215.418 465.916 215.706 467.131 215.622C468.346 215.538 469.506 215.086 470.458 214.326C471.41 213.566 472.108 212.534 472.459 211.368C472.81 210.202 472.798 208.957 472.425 207.798C472.051 206.638 471.333 205.621 470.366 204.879C469.4 204.138 468.231 203.709 467.014 203.648C465.798 203.588 464.592 203.899 463.557 204.541H463.557Z" fill="#FFB8B8"/>
<path d="M434.376 197.654L421.497 199.313C421.131 199.36 420.758 199.328 420.406 199.218C420.053 199.108 419.728 198.924 419.453 198.677C419.178 198.431 418.959 198.128 418.811 197.789C418.664 197.45 418.591 197.084 418.598 196.714L418.844 183.771C418.613 181.894 419.135 180.003 420.297 178.511C421.458 177.02 423.164 176.05 425.039 175.814C426.915 175.578 428.807 176.095 430.302 177.252C431.797 178.41 432.772 180.113 433.013 181.988L436.522 194.405C436.622 194.761 436.645 195.134 436.588 195.499C436.531 195.864 436.396 196.213 436.193 196.521C435.989 196.829 435.722 197.09 435.408 197.286C435.094 197.481 434.743 197.607 434.376 197.654Z" fill="#EB5252"/>
<path d="M430.752 161.9C438.502 161.9 444.784 155.617 444.784 147.867C444.784 140.117 438.502 133.834 430.752 133.834C423.001 133.834 416.719 140.117 416.719 147.867C416.719 155.617 423.001 161.9 430.752 161.9Z" fill="#FFB8B8"/>
<path d="M430.013 149.04L428.256 145.84C424.928 159.4 430.806 170.621 430.806 170.621L407.991 159.994L408.209 156.223L405.951 158.785L402.707 156.997L402.279 154.551L399.83 155.158L408.768 138.939C417.442 123.505 430.054 129.398 430.054 129.398C450.117 128.444 447.666 148.238 447.666 148.238L430.013 149.04Z" fill="#273144"/>
<path d="M270.269 253.615C273.504 251.541 269.569 239.63 261.48 227.012C253.391 214.394 244.211 205.846 240.975 207.92C237.74 209.994 241.675 221.905 249.764 234.523C257.853 247.141 267.033 255.689 270.269 253.615Z" fill="#273144"/>
</svg>
