<svg width="345" height="848" viewBox="0 0 345 848" fill="none" xmlns="http://www.w3.org/2000/svg">
<path d="M-1111.1 367.991C-1273.18 547.226 -803.355 805.529 -423.728 805.529C-44.1019 805.529 218.54 605.39 263.646 367.991C373.013 -207.619 -668.182 -573.475 -423.728 -69.5463C-67.4093 664.987 -983.467 226.84 -1111.1 367.991Z" fill="#E6E6E6"/>
<path d="M-1038.39 410.406C-1200.46 589.641 -730.638 847.944 -351.011 847.944C28.6149 847.944 291.257 647.805 336.363 410.406C445.729 -165.204 -595.465 -531.06 -351.011 -27.1313C5.30753 707.402 -910.75 269.255 -1038.39 410.406Z" fill="#273144"/>
<path d="M218.814 -5.4082C209.301 12.6649 195.207 27.9226 177.945 38.8385C160.683 49.7543 140.856 55.9454 120.45 56.7924C100.043 57.6394 79.7716 53.1126 61.664 43.6648C43.5563 34.217 28.2472 20.1797 17.2684 2.95718C84.5529 3.864 151.836 1.07132 218.814 -5.4082Z" fill="#EB5252"/>
<path d="M158.246 387.215C153.226 387.215 149.156 383.145 149.156 378.125C149.156 373.105 153.226 369.035 158.246 369.035C163.266 369.035 167.336 373.105 167.336 378.125C167.336 383.145 163.266 387.215 158.246 387.215Z" fill="#E6E6E6"/>
<path d="M114.316 211.484C111.806 211.484 109.771 209.449 109.771 206.939C109.771 204.429 111.806 202.394 114.316 202.394C116.826 202.394 118.861 204.429 118.861 206.939C118.861 209.449 116.826 211.484 114.316 211.484Z" fill="#E6E6E6"/>
<path d="M119.66 46.2019C112.13 46.2019 106.025 40.0974 106.025 32.5672C106.025 25.0369 112.13 18.9324 119.66 18.9324C127.19 18.9324 133.295 25.0369 133.295 32.5672C133.295 40.0974 127.19 46.2019 119.66 46.2019Z" fill="white"/>
</svg>
