<svg width="991" height="328" viewBox="0 0 991 328" fill="none" xmlns="http://www.w3.org/2000/svg">
<path d="M32.8973 675.991C-129.175 855.226 340.645 1113.53 720.272 1113.53C1099.9 1113.53 1362.54 913.39 1407.65 675.991C1517.01 100.381 475.818 -265.475 720.272 238.454C1076.59 972.987 160.533 534.84 32.8973 675.991Z" fill="#E6E6E6"/>
<path d="M105.614 718.406C-56.4581 897.641 413.362 1155.94 792.989 1155.94C1172.61 1155.94 1435.26 955.805 1480.36 718.406C1589.73 142.796 548.535 -223.06 792.989 280.869C1149.31 1015.4 233.25 577.255 105.614 718.406Z" fill="#273144"/>
<path d="M959.864 231.633C951.498 231.633 944.715 224.85 944.715 216.484C944.715 208.117 951.498 201.334 959.864 201.334C968.231 201.334 975.014 208.117 975.014 216.484C975.014 224.85 968.231 231.633 959.864 231.633Z" fill="#EB5252"/>
<path d="M887.141 113.47C884.63 113.47 882.596 111.436 882.596 108.925C882.596 106.415 884.63 104.38 887.141 104.38C889.651 104.38 891.686 106.415 891.686 108.925C891.686 111.436 889.651 113.47 887.141 113.47Z" fill="#E6E6E6"/>
</svg>
